# xmcd
#
# Track frame offsets:
#	150
#	16316
#	35362
#	53664
#	71393
#	89197
#	106056
#	124112
#	143764
#	162225
#	178472
#	195910
#
# Disc length: 2898 seconds
#
# Revision: 1
# Processed by: cddbd v1.5.2PL0 Copyright (c) Steve Scherf et al.
# Submitted via: audiograbber 1.83.01
#
DISCID=9e0b500c
DTITLE=Chartbuster - 30144
DYEAR=2010
DGENRE=karaoke
TTITLE0=Taio Cruz - Dynamite
TTITLE1=Three Days Grace - World So Cold
TTITLE2=Katy Perry - Teenage Dream
TTITLE3=Usher and Pitbull - DJ Got Us Falling In Love
TTITLE4=Hanson - Thinkin' About Something
TTITLE5=Kelly Clarkson - Cry
TTITLE6=Adam lambert - If I Had You
TTITLE7=David Archuleta - Something 'Bout Love
TTITLE8=Taylor Swift - Mine
TTITLE9=Justin Bieber - U Smile
TTITLE10=Drake - Find Your Love
TTITLE11=Eminem and Rihanna - Love the Way You Lie
EXTD=
EXTT0=
EXTT1=
EXTT2=
EXTT3=
EXTT4=
EXTT5=
EXTT6=
EXTT7=
EXTT8=
EXTT9=
EXTT10=
EXTT11=
PLAYORDER=
